# xmcd
#
# Track frame offsets:
#	150
#	11116
#	27163
#	38929
#	51666
#	63102
#	76041
#	89655
#	101931
#	114858
#
# Disc length: 1705 seconds
#
# Revision: 0
# Processed by: cddbd v1.5.2PL0 Copyright (c) Steve Scherf et al.
# Submitted via: EasyCDDAExtractor 4.5.0.2
#
DISCID=7d06a70a
DTITLE=Con Hunley - Don't It Break Your Heart
DYEAR=2005
DGENRE=Country
TTITLE0=It Wasn't Me
TTITLE1=What's New with You
TTITLE2=They Never Lost You
TTITLE3=Someone I Used to Love
TTITLE4=I Wanta Wake Up with You
TTITLE5=Foolish Feelings
TTITLE6=I'm Losing My Life
TTITLE7=Too Big for Words
TTITLE8=This Ol' Cowboy's Going Home
TTITLE9=Don't it Break Your Heart
EXTD=
EXTT0=
EXTT1=
EXTT2=
EXTT3=
EXTT4=
EXTT5=
EXTT6=
EXTT7=
EXTT8=
EXTT9=
PLAYORDER=
